<?xml version="1.0" encoding="utf-8"?>
<!-- Generator: Adobe Illustrator 17.0.0, SVG Export Plug-In . SVG Version: 6.00 Build 0)  -->
<!DOCTYPE svg PUBLIC "-//W3C//DTD SVG 1.1//EN" "http://www.w3.org/Graphics/SVG/1.1/DTD/svg11.dtd">
<svg version="1.1" id="Слой_1" xmlns="http://www.w3.org/2000/svg" xmlns:xlink="http://www.w3.org/1999/xlink" x="0px" y="0px"
	 width="365.431px" height="113.412px" viewBox="0 0 365.431 113.412" enable-background="new 0 0 365.431 113.412"
	 xml:space="preserve">
<g>
	<path fill-rule="evenodd" clip-rule="evenodd" d="M49.591,29.1c0.144-0.587-0.788-0.908,0.426-3.619
		c1.075-2.401,2.917-3.505,3.046-3.69c0.479-0.684-6.477-3.631-10.024-5.687c-2.622-1.52-10.386-7.477-13.567-7.148
		c-0.873,0.073-2.615-1.737-2.749-2.862c-0.132-1.07,1.058-2.951,2.08-3.328c1.068-0.356,3.481,0.32,3.813,1.176
		c1.536,3.824,5.182,5.36,7.917,7.886c1.567,1.413,12.834,7.765,17.694,7.6c3.973-0.135,9.253-2.906,13.523-6.116
		c3.882-2.918,6.575-4.396,8.358-5.964c1.608-1.406,2.628-3.938,4.21-5.409c1.033-0.997,2.679-2.067,3.905-1.927
		c1.004,0.132,2.605,2.132,2.473,3.079c-0.16,1.211-1.67,2.467-2.883,3.261c-1.691,1.073-3.935,1.407-5.492,2.623
		c-4.691,3.751-12.388,7.8-17.065,11.76c0.778,0.932,3.422-0.158,6.206,2.655c1.081,1.092,2.749,3.653,4.114,3.47
		c10.686-1.432,24.312-2.793,35.545-3.927c3.005-0.277,6.01-0.665,9.018-0.789c3.296-0.14,4.109,0.59,4.214,3.792
		c0.075,3.536,0.07,7.027-0.103,10.562c-0.367,8.418-0.893,16.834-1.346,25.25c-0.757,14.435-1.493,28.871-2.336,43.297
		c-0.227,4.31-1.088,4.978-6.43,5.214c-9.903,0.299-19.845,0.554-29.754,0.84c-22.25,0.783-44.484,1.578-66.709,2.272
		c-1.017,0.096-2.035-0.02-3.037,0c-2.48,0.242-3.682-1.066-4.04-3.366c-1.514-9.996-3.055-19.897-4.586-29.798
		c-1.88-12.424-3.765-24.848-5.672-37.225c-0.079-0.607-0.277-1.212-0.28-1.867c-0.069-4.276-0.799-6.615,5.542-7.233
		c10.357-1.071,20.703-2.265,31.061-3.4C39.402,30.208,46.689,29.429,49.591,29.1z M23.257,95.154
		c-0.229-1.023-0.347-1.976-0.764-2.793c-0.199-0.402-0.965-0.536-1.448-0.8c-0.426,0.297-1.228,0.692-1.222,1.08
		c0.067,1.891,0.333,3.874,0.532,5.764c-0.601-2.272-1.201-4.544-1.802-6.816c-0.167,0.103-0.311,0.113-0.454,0.121
		c0.252,2.686,0.51,5.468,0.749,8.154c-0.641-2.668-1.301-5.336-1.96-8.005c-0.121,0.101-0.253,0.107-0.385,0.112
		c0.474,4.815,0.749,8.835,1.241,13.651c-0.932-4.939-1.636-8.988-2.551-13.925c-0.222,0.005-0.427,0.011-0.632,0.016
		c-0.086,0.508-0.181,0.926-0.259,1.342c-0.406-0.417-0.595-2.517-1.676-1.861c-0.743,0.45,1.603,10.958,2.444,16.147
		c0.036,0.285,0.893,0.987,1.363,1.251c0.629,0.128,1.139-1.522,1.444-2.308c0.435,0.647,0.897,1.2,1.605,2.138
		c0-1.463,0-2.41,0-3.356c0.413,0.942,0.828,1.883,1.496,3.468c0-2.108,0-3.471,0-4.928c0.476,1.465,0.982,2.931,1.474,4.396
		c0.131-0.108,0.249-0.121,0.374-0.135c-0.372-3.73-0.713-7.458-1.075-11.093c0.807,3.766,1.612,7.628,2.418,11.48
		c0.154-0.093,0.299-0.1,0.466-0.107c-0.485-4.404-0.979-8.807-1.452-13.12c0.876,4.302,1.782,8.691,2.676,12.992
		c0.204-0.01,0.412-0.02,0.642-0.124c-0.8-5.48-1.6-10.961-2.391-16.44c-0.212,0.008-0.415,0.103-0.619,0.107
		C23.399,92.762,23.326,93.962,23.257,95.154z M67.966,108.961c10.673-0.156,21.362-0.521,32.016-0.939
		c4.254-0.147,8.468-0.827,12.734-1.324c2.555-0.17,3.544-1.491,3.64-4.16c0.383-8.283,1.055-16.562,1.64-24.747
		c0.94-14.297,1.905-28.592,2.754-42.89c0.126-1.81-0.008-3.943-0.872-5.426c-0.678-1.262-2.594-2.407-4.016-2.533
		c-2.865-0.203-5.748,0.282-8.622,0.597c-11.75,1.143-23.462,2.286-35.199,3.54c-13.592,1.406-27.185,3.009-40.79,4.281
		c-9.959,0.935-9.475,3.272-8.49,11.827c1.476,12.699,3.306,25.291,5.039,37.981c0.8,5.869,1.51,11.745,2.581,17.505
		c0.961,5.209,3.496,7.083,8.578,7.09C41.606,109.765,60.93,109.096,67.966,108.961z M9.647,47.063
		c-0.317-1.075-1.247-1.534-2.001-1.48c-0.566,0.005-2.069,0.633-1.965,1.547c0.174,1.538,1.529,1.738,2.202,1.809
		C8.523,49.007,9.557,47.977,9.647,47.063z M9.147,56.757c1.319-0.506,1.831-1.105,1.656-2.059
		c-0.169-0.921-1.118-1.444-1.879-1.684c-0.332-0.078-1.641,0.705-1.504,1.549C7.677,56.145,8.022,56.251,9.147,56.757z
		 M11.839,62.448c0.048-1.225-0.755-1.881-1.487-1.896c-0.538-0.106-1.575,0.827-1.636,1.471c-0.063,0.546,0.744,1.631,1.296,1.749
		C10.718,63.896,11.774,63.667,11.839,62.448z M15.192,44.487c-0.917,0.194-1.885,1.231-1.904,1.964
		c-0.055,0.538,0.916,1.544,1.489,1.608c0.589,0.064,1.703-0.795,1.775-1.333C16.638,45.995,16.094,44.68,15.192,44.487z
		 M19.342,61.489c-0.235-1.517-1.288-1.732-2.023-1.737c-0.533-0.004-1.488,0.946-1.51,1.49c-0.036,0.642,0.842,1.706,1.398,1.718
		C17.916,62.975,19.334,62.757,19.342,61.489z M16.297,51.788c-1.056,0.225-1.932,1.422-1.801,1.845
		c0.202,0.777,0.854,1.419,1.598,1.677c0.371,0.13,1.813-0.778,1.811-1.315C17.902,53.216,17.572,52.07,16.297,51.788z"/>
	<path fill-rule="evenodd" clip-rule="evenodd" fill="#FFFFFF" d="M159.112,49.861c-4.277,0-8.15,0.004-12.015-0.002
		c-2.029-0.051-2.021,1.349-2.019,2.816c0.004,4.803,0.001,9.606,0.001,14.314c0,7.73,0.001,15.365-0.002,23.09
		c0,1.092,0.065,2.281-0.136,3.36c-0.454,2.289-1.856,3.884-4.267,4.148c-2.462,0.266-4.088-1.09-4.87-3.34
		c-0.421-1.318-0.541-2.685-0.545-4.034c-0.011-14.667-0.013-29.244-0.004-43.82c0.006-5.874,1.613-7.428,7.352-7.481
		c6.548-0.006,13.095-0.01,19.642,0.002c4.813,0.056,6.692,1.855,6.699,6.601c0.062,15.186,0.053,30.42,0.048,45.653
		c0,0.822-0.057,1.753-0.328,2.557c-0.802,2.38-2.276,4.116-4.946,3.858c-2.542-0.255-4.012-1.985-4.485-4.405
		c-0.198-0.946-0.123-2.005-0.124-3.053c-0.001-11.916-0.001-23.828-0.001-35.836C159.112,52.95,159.112,51.61,159.112,49.861z"/>
	<path fill-rule="evenodd" clip-rule="evenodd" fill="#FFFFFF" d="M310.98,49.802c0,3.134,0,5.695,0,8.351c0,1.34,0,2.681,0,4.433
		c4.005,0,7.615-0.007,11.225,0.096c4.347,0.012,6.219,1.628,6.146,5.246c-0.011,3.587-2.02,5.348-6.201,5.467
		c-3.552,0.116-7.039,0.004-10.829,0.004c0,4.271,0,8.295,0,12.816c4.445,0,8.749-0.014,13.146,0.002
		c3.746,0.009,6.012,2.004,6.026,5.207c0.106,3.344-2.278,5.483-6.154,5.492c-5.366,0.012-10.826,0.018-16.19-0.002
		c-4.949-0.113-6.942-1.874-6.952-6.835c-0.122-14.534-0.122-28.98-0.002-43.425c0.011-5.6,2.288-7.684,7.881-7.741
		c4.712-0.009,9.516-0.144,14.315,0.119c1.737,0.074,4.138,0.679,4.946,1.89c1.02,1.527,1.202,4.004,0.814,5.931
		c-0.4,2.144-2.459,2.952-4.686,2.95C320.192,49.8,315.917,49.802,310.98,49.802z"/>
	<path fill-rule="evenodd" clip-rule="evenodd" fill="#FFFFFF" d="M247.462,97.07c-7.882,0-15.368,0-23.367,0
		c-0.026,1.858-0.034,3.715-0.27,5.475c-0.284,3.733-2.298,5.872-5.227,5.621c-2.795-0.155-4.292-2.279-4.398-5.907
		c-0.011-3.452,0.004-6.81-0.004-10.166c-0.005-2.519,1.052-4.265,3.075-5.722c1.207-0.813,2.657-2.134,2.935-3.37
		c1.053-4.402,1.88-8.923,2.259-13.353c0.541-7.624,0.663-15.354,0.937-22.984c0.157-5.618,2.276-7.688,7.88-7.75
		c4.576-0.012,9.247-0.066,13.917,0.049c5.354,0.072,7.601,2.275,7.607,7.569c0.01,12.042,0.007,24.178-0.001,36.22
		c-0.001,1.753,0.265,3.065,1.9,4.291c1.44,1.056,2.251,3.345,2.407,5.208c0.396,3.345,0.266,6.807,0.124,10.162
		c-0.147,3.722-2.279,5.877-5.126,5.756c-2.916-0.028-4.63-2.271-4.646-6.046C247.456,100.518,247.462,98.914,247.462,97.07z
		 M233.155,50.206c-1.215,11.968,0.386,24.126-3.487,35.741c4.576,0,8.834,0,12.962,0c0-12.155,0-24.04,0-36.088
		c-2.765,0-5.078-0.054-7.469,0.004C234.513,49.866,233.961,50.066,233.155,50.206z"/>
	<path fill-rule="evenodd" clip-rule="evenodd" fill="#FFFFFF" d="M333.7,67.771c0.404-5.484,0.25-11.102,1.344-16.493
		c2.656-12.048,16.17-17.055,26.459-10.101c2.404,1.61,4.219,3.618,3.862,6.822c-0.404,3.603-3.773,5.336-6.936,3.543
		c-9.688-5.478-14.448-2.671-14.484,8.61c-0.014,5.232-0.016,10.56,0.028,15.792c0.003,1.573,0.012,3.061,0.272,4.534
		c0.937,5.755,6.036,8.401,11.311,5.745c0.67-0.382,1.261-0.797,1.919-1.2c2.962-1.993,4.834-1.984,6.652,0.124
		c1.732,1.899,1.776,4.963-0.092,7.231c-2.935,3.592-7.001,4.811-11.359,5.19c-10.342,0.807-17.502-5.596-18.323-16.568
		c-0.385-4.399-0.111-8.812-0.111-13.22C334.092,67.777,333.916,67.774,333.7,67.771z"/>
	<path fill-rule="evenodd" clip-rule="evenodd" fill="#FFFFFF" d="M175.411,67.65c0.347-4.968,0.344-10.174,1.215-15.24
		c1.14-6.614,4.748-11.834,11.627-13.379c6.423-1.47,13.089-1.26,17.637,4.428c2.151,2.736,4.271,6.349,4.427,9.698
		c0.651,9.563,1.056,19.316,0.115,28.917c-1.197,11.776-11.496,18.176-22.324,14.74c-6.875-2.05-10.414-7.365-11.55-14.053
		C175.747,77.822,175.755,72.843,175.411,67.65z M185.717,67.79c-0.009,0-0.019,0-0.123,0c0,3.056-0.026,6.018,0.1,9.073
		c0.162,6.418,3.081,10.034,7.772,10.043c4.66,0.008,7.616-3.635,7.883-10.039c0.139-3.616,0.133-7.33,0.007-10.947
		c-0.126-3.612-0.01-7.245-0.684-10.83c-1.039-4.947-4.816-7.024-9.617-5.689c-3.997,1.128-4.946,4.47-5.224,7.838
		C185.456,60.811,185.717,64.303,185.717,67.79z"/>
	<path fill-rule="evenodd" clip-rule="evenodd" fill="#FFFFFF" d="M287.569,66.193c9.625,8.015,10.682,19.082,2.808,26.182
		c-2.018,1.868-4.825,3.602-7.489,3.893c-5.337,0.771-10.81,0.647-16.166,0.504c-2.441-0.117-4.009-2.111-4.324-4.539
		c-0.26-1.867-0.342-3.746-0.342-5.619c-0.006-13.223-0.008-26.445-0.001-39.62c0.003-6.288,1.845-8.083,8.141-8.032
		c3.617,0.002,7.309,0.008,10.942,0.335c6.303,0.537,10.393,4.21,12.201,10.097c1.975,6.068,1.467,11.701-4.011,15.979
		C288.899,65.769,288.235,65.914,287.569,66.193z M271.93,86.213c2.694,0,4.957,0.02,7.218-0.004
		c4.406-0.238,6.694-2.662,6.658-6.941c-0.105-4.278-2.495-6.672-6.794-6.804c-1.61-0.014-3.311,0.009-4.928,0
		c-1.599-0.009-2.165,0.679-2.158,2.275C271.94,78.352,271.93,81.963,271.93,86.213z M271.933,55.483
		c0,1.347-0.039,2.791,0.009,4.137c0.089,0.541,0.267,1.324,0.669,1.604c2.124,1.603,9.619-0.109,10.963-2.385
		c2.655-4.31,0.118-8.978-4.965-8.981C270.721,49.805,272.062,49.268,271.933,55.483z"/>
	<path fill-rule="evenodd" clip-rule="evenodd" d="M21.022,91.444c0.27,1.859,0.54,3.622,0.821,5.48
		C21.562,95.066,21.291,93.302,21.022,91.444z"/>
	<path fill-rule="evenodd" clip-rule="evenodd" d="M21.084,103.735c-0.286-1.859-0.564-3.622-0.834-5.48
		C20.519,100.113,20.797,101.876,21.084,103.735z"/>
	<path fill-rule="evenodd" clip-rule="evenodd" d="M18.752,99.736c0.28,1.858,0.554,3.713,0.823,5.479
		C19.306,103.449,19.033,101.594,18.752,99.736z"/>
	<path fill-rule="evenodd" clip-rule="evenodd" fill="#FFFFFF" d="M101.794,68.313c8.457,7.341,10.023,16.173,4.641,24.213
		c-2.602,3.878-6.216,6.282-10.883,6.681c-4.221,0.388-8.533,0.505-12.775,0.381c-3.901-0.12-5.917-2.282-5.924-6.291
		c-0.059-15.625-0.059-31.251,0-46.829c0.007-4.212,2.054-6.152,6.293-6.223c3.143-0.065,6.313-0.01,9.456-0.003
		c7.086,0.063,12.13,3.282,14.315,9.492c2.138,6.022,2.131,13.502-3.823,17.787C102.695,67.792,102.237,68.046,101.794,68.313z
		 M86.212,88.228c1.067,0.126,1.67,0.243,2.275,0.252c1.872,0.008,3.746,0.029,5.616-0.099c3.247-0.151,5.149-2.137,5.586-5.38
		c0.534-4.254-0.974-7.601-4.148-8.259c-2.537-0.429-5.214-0.292-7.819-0.153c-0.535,0.009-1.403,1.335-1.444,2.024
		C86.127,80.352,86.212,84.093,86.212,88.228z M86.216,51.335c0,3.86-0.079,6.95,0.063,10.036c0.041,0.667,0.846,1.863,1.309,1.863
		c2.607,0,5.291,0.121,7.782-0.546c2.581-0.673,3.723-4.131,3.06-7.345c-0.605-3.002-1.815-3.939-5.353-4.006
		C90.962,51.278,88.86,51.335,86.216,51.335z"/>
	<path fill-rule="evenodd" clip-rule="evenodd" fill="#FFFFFF" d="M60.388,51.331c0,10.57,0,20.47,0,30.37
		c0,4.24,0.065,8.387-0.037,12.532c-0.068,3.623-2.074,6.028-4.841,6.027c-2.807-0.002-4.748-2.292-4.784-6.138
		c-0.066-12.569-0.02-25.138-0.027-37.707c-0.002-5.751,0.224-5.077-5.088-5.075c-2.397,0.001-4.515-0.278-5.784-2.673
		c-1.139-2.138-1.01-4.354,0.535-5.957c1.179-1.207,3.12-2.324,4.752-2.342c7.053-0.263,14.097-0.191,21.148-0.119
		c3.687,0.061,5.626,2.133,5.584,5.617c-0.028,3.406-1.827,5.268-5.38,5.414C64.598,51.4,62.726,51.331,60.388,51.331z"/>
</g>
</svg>
