<?xml version="1.0" encoding="utf-8"?>
<!-- Generator: Adobe Illustrator 17.0.0, SVG Export Plug-In . SVG Version: 6.00 Build 0)  -->
<!DOCTYPE svg PUBLIC "-//W3C//DTD SVG 1.1//EN" "http://www.w3.org/Graphics/SVG/1.1/DTD/svg11.dtd">
<svg version="1.1" id="Слой_1" xmlns="http://www.w3.org/2000/svg" xmlns:xlink="http://www.w3.org/1999/xlink" x="0px" y="0px"
	 width="304.682px" height="179.333px" viewBox="0 0 304.682 179.333" enable-background="new 0 0 304.682 179.333"
	 xml:space="preserve">
<polygon fill="#3C3C3B" points="287.436,153.14 41.021,170.997 41.021,8.497 287.436,18.42 "/>
<linearGradient id="SVGID_1_" gradientUnits="userSpaceOnUse" x1="46.5929" y1="83.7948" x2="281.8651" y2="83.7948">
	<stop  offset="0" style="stop-color:#B2B2B2"/>
	<stop  offset="1" style="stop-color:#575756"/>
</linearGradient>
<polygon fill="url(#SVGID_1_)" points="281.865,135.283 46.593,153.14 46.593,14.45 281.865,24.373 "/>
<polygon fill="#262626" points="41.021,8.497 41.021,170.997 34.603,164.754 34.603,12.254 "/>
<path fill="#262626" d="M36.686,69.894v2.747c0,2.607-1.714,4.321-3.196,3.197l-8.156-6.191c-1.482-1.125-3.196,0.59-3.196,3.197
	v13.361c0,1.957-1,3.543-2.233,3.543H5.432c-3,0-5.432-3.86-5.432-8.622V44.558c0-4.983,2.545-9.023,5.685-9.023h10.81
	c3.116,0,5.643,4.01,5.643,8.956v9.893c0,1.365,0.494,2.608,1.269,3.197l12.009,9.116C36.192,67.286,36.686,68.529,36.686,69.894z"
	/>
<path fill="none" stroke="#FFFFFF" stroke-width="4" stroke-miterlimit="10" d="M175.7,4.103c8.069,0,20.385,38.344,20.385,85.643
	S183.769,175.39,175.7,175.39"/>
<path fill="none" stroke="#FFFFFF" stroke-width="4" stroke-miterlimit="10" d="M302.03,71.012
	c0.237,6.855-61,19.445-136.985,22.067S27.1,87.361,26.864,80.506"/>
</svg>
