<?xml version="1.0" encoding="utf-8"?>
<!-- Generator: Adobe Illustrator 17.0.0, SVG Export Plug-In . SVG Version: 6.00 Build 0)  -->
<!DOCTYPE svg PUBLIC "-//W3C//DTD SVG 1.1//EN" "http://www.w3.org/Graphics/SVG/1.1/DTD/svg11.dtd">
<svg version="1.1" id="Слой_1" xmlns="http://www.w3.org/2000/svg" xmlns:xlink="http://www.w3.org/1999/xlink" x="0px" y="0px"
	 width="338px" height="177.333px" viewBox="0 0 338 177.333" enable-background="new 0 0 338 177.333" xml:space="preserve">
<polygon fill="#3C3C3B" points="306.365,152.473 59.949,170.33 59.949,7.83 306.365,17.754 "/>
<linearGradient id="SVGID_1_" gradientUnits="userSpaceOnUse" x1="65.5213" y1="83.1281" x2="300.7935" y2="83.1281">
	<stop  offset="0" style="stop-color:#B2B2B2"/>
	<stop  offset="1" style="stop-color:#575756"/>
</linearGradient>
<polygon fill="url(#SVGID_1_)" points="300.794,134.616 65.521,152.473 65.521,13.783 300.794,23.706 "/>
<polygon fill="#262626" points="59.949,7.83 59.949,170.33 53.531,164.087 53.531,11.587 "/>
<path fill="none" stroke="#FFFFFF" stroke-width="4" stroke-miterlimit="10" d="M192.629,3.437c8.069,0,20.385,38.344,20.385,85.643
	s-12.316,85.643-20.385,85.643"/>
<path fill="none" stroke="#FFFFFF" stroke-width="4" stroke-miterlimit="10" d="M335.182,71.613
	c0.255,7.384-65.706,20.945-147.551,23.769S39.047,89.224,38.792,81.839"/>
<path fill="#262626" d="M56.74,66.047v2.932c0,2.783-1.672,4.612-3.117,3.412l-7.955-6.608c-1.445-1.201-3.117,0.629-3.117,3.412
	v14.26c0,2.089-0.975,3.782-2.177,3.782H26.259c-2.926,0-5.298-4.12-5.298-9.203V39.006c0-5.319,2.482-9.63,5.545-9.63h10.544
	c3.039,0,5.503,4.28,5.503,9.559v10.559c0,1.456,0.481,2.783,1.238,3.412l11.713,9.73C56.259,63.264,56.74,64.591,56.74,66.047z"/>
<path fill="#262626" d="M3.04,92.725v-2.932c0-2.783,1.674-4.612,3.122-3.412l7.968,6.608c1.448,1.201,3.122-0.629,3.122-3.412
	v-14.26c0-2.089,0.976-3.782,2.181-3.782h14.14c2.931,0,5.307,4.12,5.307,9.203v39.028c0,5.319-2.487,9.63-5.554,9.63H22.765
	c-3.045,0-5.513-4.28-5.513-9.559v-10.559c0-1.456-0.482-2.783-1.24-3.412L4.28,96.137C3.522,95.508,3.04,94.181,3.04,92.725z"/>
<path fill="#262626" d="M29.853,136.823L29.853,136.823c-1.105,0-2-0.895-2-2v-112c0-1.105,0.895-2,2-2h0c1.105,0,2,0.895,2,2v112
	C31.853,135.928,30.957,136.823,29.853,136.823z"/>
<g>
	<g>
		<line fill="none" stroke="#FFFFFF" stroke-width="2" stroke-miterlimit="10" x1="28.666" y1="11.94" x2="49.095" y2="11.94"/>
		<g>
			<polygon fill="#FFFFFF" points="32.65,15.33 29.257,11.94 32.65,8.549 29.771,8.549 26.38,11.94 29.771,15.33 			"/>
		</g>
		<g>
			<polygon fill="#FFFFFF" points="45.111,15.33 48.503,11.94 45.111,8.549 47.99,8.549 51.38,11.94 47.99,15.33 			"/>
		</g>
	</g>
</g>
</svg>
