<?xml version="1.0" encoding="utf-8"?>
<!-- Generator: Adobe Illustrator 17.0.0, SVG Export Plug-In . SVG Version: 6.00 Build 0)  -->
<!DOCTYPE svg PUBLIC "-//W3C//DTD SVG 1.1//EN" "http://www.w3.org/Graphics/SVG/1.1/DTD/svg11.dtd">
<svg version="1.1" id="Слой_1" xmlns="http://www.w3.org/2000/svg" xmlns:xlink="http://www.w3.org/1999/xlink" x="0px" y="0px"
	 width="225.5px" height="167px" viewBox="0 0 225.5 167" enable-background="new 0 0 225.5 167" xml:space="preserve">
<g>
	
		<linearGradient id="SVGID_1_" gradientUnits="userSpaceOnUse" x1="-1125" y1="158" x2="-1067" y2="158" gradientTransform="matrix(-1 0 0 1 -983.5 0)">
		<stop  offset="0" style="stop-color:#898988"/>
		<stop  offset="1" style="stop-color:#3C3C3B"/>
	</linearGradient>
	<ellipse fill="url(#SVGID_1_)" cx="112.5" cy="158" rx="29" ry="9"/>
	
		<linearGradient id="SVGID_2_" gradientUnits="userSpaceOnUse" x1="-1125" y1="156" x2="-1067" y2="156" gradientTransform="matrix(-1 0 0 1 -983.5 0)">
		<stop  offset="0" style="stop-color:#3C3C3B"/>
		<stop  offset="0.3996" style="stop-color:#3E3E3D"/>
		<stop  offset="0.5434" style="stop-color:#454544"/>
		<stop  offset="0.6457" style="stop-color:#50504F"/>
		<stop  offset="0.683" style="stop-color:#575756"/>
		<stop  offset="0.6897" style="stop-color:#555554"/>
		<stop  offset="0.7636" style="stop-color:#474746"/>
		<stop  offset="0.853" style="stop-color:#3F3F3E"/>
		<stop  offset="1" style="stop-color:#3C3C3B"/>
	</linearGradient>
	<ellipse fill="url(#SVGID_2_)" cx="112.5" cy="156" rx="29" ry="9"/>
	
		<linearGradient id="SVGID_3_" gradientUnits="userSpaceOnUse" x1="-1103.75" y1="142.75" x2="-1087.75" y2="142.75" gradientTransform="matrix(-1 0 0 1 -983.5 0)">
		<stop  offset="0" style="stop-color:#3C3C3B"/>
		<stop  offset="0.3503" style="stop-color:#3E3E3D"/>
		<stop  offset="0.4765" style="stop-color:#454444"/>
		<stop  offset="0.5664" style="stop-color:#50504F"/>
		<stop  offset="0.6386" style="stop-color:#616060"/>
		<stop  offset="0.683" style="stop-color:#706F6F"/>
		<stop  offset="0.6963" style="stop-color:#6A6969"/>
		<stop  offset="0.7491" style="stop-color:#555554"/>
		<stop  offset="0.8089" style="stop-color:#474746"/>
		<stop  offset="0.8812" style="stop-color:#3F3E3E"/>
		<stop  offset="1" style="stop-color:#3C3C3B"/>
	</linearGradient>
	<path fill="url(#SVGID_3_)" d="M104.25,132.5c0-3.314,2.388-6,5.333-6h5.333c2.946,0,5.334,2.686,5.334,6V153
		c0,3.314-2.388,6-5.334,6h-5.333c-2.945,0-5.333-2.686-5.333-6V132.5z"/>
	<rect x="0" y="0" fill="#3C3C3B" width="225.5" height="136.5"/>
	<circle cx="72.87" cy="110.476" r="3.271"/>
	<circle cx="157.322" cy="110.476" r="3.271"/>
	<circle cx="157.322" cy="26.024" r="3.271"/>
	<circle cx="72.87" cy="26.024" r="3.271"/>
	<line fill="#FFFFFF" stroke="#FFFFFF" stroke-miterlimit="10" x1="77.95" y1="26.024" x2="151.374" y2="26.024"/>
	<line fill="#FFFFFF" stroke="#FFFFFF" stroke-miterlimit="10" x1="73.027" y1="104.962" x2="73.027" y2="31.538"/>
	<text transform="matrix(1 0 0 1 110.9451 23.3676)" fill="#FFFFFF" font-family="'MyriadPro-Regular'" font-size="10.7052">А</text>
	<text transform="matrix(1 0 0 1 63.907 71.0424)" fill="#FFFFFF" font-family="'MyriadPro-Regular'" font-size="10.7052">В</text>
</g>
</svg>
